<svg version="1.0" xmlns="http://www.w3.org/2000/svg"
 width="689px" style="transform:scale(1,1.001);" height="387.5625px" viewBox="0 0 320.000000 180.000000"
 preserveAspectRatio="xMidYMid meet">
<g transform="translate(0.000000,180.000000) scale(0.100000,-0.100000)"
fill="#000000" stroke="none">
<path d="M0 905 l0 -895 350 0 350 0 0 24 c0 13 -6 29 -14 35 -23 19 -58 112 -63 165
-2 28 -5 52 -6 55 0 3 5 44 12 91 13 88 11 272 -2 301 -6 12 8 29 60 69 91 70
132 118 133 154 0 15 -7 55 -16 89 l-15 60 53 49 c29 27 69 54 90 60 55 16
122 2 165 -35 44 -38 59 -74 68 -153 7 -61 7 -61 60 -92 30 -16 68 -33 87 -37
18 -4 45 -18 59 -32 l26 -24 5 168 c6 190 11 208 79 267 59 50 95 55 158 21
84 -46 96 -64 93 -146 -3 -92 14 -126 66 -134 58 -10 59 -11 67 -57 l7 -43 14
32 c13 30 15 31 44 21 29 -10 85 -69 109 -115 19 -37 53 -156 53 -183 0 -14 4
-42 9 -62 5 -21 10 -88 11 -149 l1 -112 -36 -31 -36 -31 1 -112 1 -113 578 0
579 0 0 895 0 895 -1600 0 -1600 0 0 -895z"/>
<path d="M1441 383 c0 -25 1 -26 9 -8 12 27 12 35 0 35 -5 0 -10 -12 -9 -27z"/>
</g>
</svg>
